<svg width="12" height="12" viewBox="0 0 12 12" fill="none" xmlns="http://www.w3.org/2000/svg">
<path d="M2.49219 11.8008H9.57031C10.8711 11.8008 11.5566 11.1211 11.5566 9.83789V2.71875C11.5566 1.43555 10.8711 0.75 9.57031 0.75H2.49219C1.19727 0.75 0.505859 1.43555 0.505859 2.71875V9.83789C0.505859 11.1211 1.19727 11.8008 2.49219 11.8008ZM2.60352 10.5C2.08789 10.5 1.8125 10.2363 1.8125 9.69727V2.85352C1.8125 2.31445 2.08789 2.05664 2.60352 2.05664H9.46484C9.96875 2.05664 10.2559 2.31445 10.2559 2.85352V9.69727C10.2559 10.2363 9.96875 10.5 9.46484 10.5H2.60352ZM3.86914 6.87305H8.20508C8.57422 6.87305 8.83203 6.64453 8.83203 6.28125C8.83203 5.91797 8.58008 5.68359 8.20508 5.68359H3.86914C3.49414 5.68359 3.23633 5.91797 3.23633 6.28125C3.23633 6.64453 3.50586 6.87305 3.86914 6.87305Z" fill="#6A737D"/>
</svg>
