<svg width="12" height="12" viewBox="0 0 12 12" fill="none" xmlns="http://www.w3.org/2000/svg">
<path d="M10.6953 1.42969C10.0859 0.826172 9.25391 0.691406 8.14062 0.691406H3.78125C2.67969 0.691406 1.8418 0.826172 1.23828 1.42969C0.634766 2.03906 0.505859 2.85938 0.505859 3.9668V8.32617C0.505859 9.44531 0.634766 10.2715 1.23828 10.8691C1.84766 11.4785 2.67383 11.6133 3.79297 11.6133H8.14062C9.25391 11.6133 10.0859 11.4785 10.6953 10.8691C11.2988 10.2656 11.4277 9.44531 11.4277 8.32617V3.97852C11.4277 2.85352 11.2988 2.0332 10.6953 1.42969ZM3.10156 6.1582C3.10156 5.78906 3.35938 5.52539 3.72266 5.52539H5.3457V3.90234C5.3457 3.54492 5.60352 3.28125 5.9668 3.28125C6.33008 3.28125 6.59375 3.54492 6.59375 3.90234V5.52539H8.2168C8.58008 5.52539 8.83789 5.78906 8.83789 6.1582C8.83789 6.51562 8.57422 6.77344 8.2168 6.77344H6.59375V8.40234C6.59375 8.75977 6.33008 9.01758 5.9668 9.01758C5.60352 9.01758 5.3457 8.75977 5.3457 8.40234V6.77344H3.72266C3.36523 6.77344 3.10156 6.51562 3.10156 6.1582Z" fill="#6A737D"/>
</svg>
